<?xml version="1.0" encoding="UTF-8"?><svg id="Layer_1" xmlns="http://www.w3.org/2000/svg" viewBox="0 0 595.28 841.89"><defs><style>.cls-1{fill:#f4f4fa;}.cls-2{fill:#fff;}.cls-3{fill:#fbf2f6;}.cls-4{fill:#d5d4e2;}</style></defs><path class="cls-4" d="M405.18,262.36c-10.67-10.67-20.33-22.08-28.94-34.11-25.63-35.82-41.9-77.17-47.55-121-1.5-11.51-2.25-23.19-2.25-34.99,0-24.76,3.33-49.02,9.77-72.26H202.96c-4.34,23.67-6.52,47.81-6.52,72.26,0,20.39,1.52,40.55,4.53,60.4,4.94,32.56,13.91,64.3,26.84,94.87,4.87,11.5,10.23,22.71,16.1,33.62,18.37,34.17,41.6,65.38,69.34,93.13,36.61,36.61,79.26,65.36,126.76,85.45,2.52,1.07,5.04,2.1,7.57,3.11h.01c46.98,18.75,96.62,28.26,147.69,28.26v-130c-71.81,0-139.32-27.96-190.1-78.74Z"/><path class="cls-3" d="M456.35,0c-10.75,15.99-23.15,31.06-37.08,44.99-26.56,26.56-57.23,47.51-90.58,62.26-37.64,16.66-78.68,25.41-121.07,25.41H0v130H207.62c12.18,0,24.28-.5,36.29-1.51,45.14-3.76,89.01-14.56,130.84-32.26,.5-.21,1-.42,1.49-.64,50.53-21.58,95.93-52.31,134.96-91.34,34.84-34.83,63.07-74.76,84.08-118.88V0h-138.93Z"/><path class="cls-1" d="M447.59,442.84h-.01c-2.53,1-5.05,2.04-7.57,3.1-47.5,20.09-90.15,48.84-126.76,85.44-36.6,36.61-65.35,79.26-85.44,126.76-20.82,49.21-31.37,101.45-31.37,155.26,0,9.55,.33,19.05,1,28.49h130.48c-.98-9.4-1.48-18.91-1.48-28.49,0-71.81,27.96-139.32,78.74-190.09,50.78-50.78,118.29-78.74,190.1-78.74v-130c-51.07,0-100.71,9.5-147.69,28.27Z"/><circle class="cls-2" cx="95.77" cy="197.66" r="43.29"/><circle class="cls-2" cx="262.44" cy="780.39" r="43.29"/></svg>